<?xml version="1.0" standalone="no"?>
<!DOCTYPE svg PUBLIC "-//W3C//DTD SVG 20010904//EN"
 "http://www.w3.org/TR/2001/REC-SVG-20010904/DTD/svg10.dtd">
<svg version="1.0" xmlns="http://www.w3.org/2000/svg"
 width="700.000000pt" height="700.000000pt" viewBox="0 0 700.000000 700.000000"
 preserveAspectRatio="xMidYMid meet">
<metadata>
Created by potrace 1.14, written by Peter Selinger 2001-2017
</metadata>
<g transform="translate(0.000000,700.000000) scale(0.100000,-0.100000)"
fill="#000000" stroke="none">
<path d="M3389 6776 c-2 -2 -47 -6 -99 -10 -124 -9 -170 -13 -277 -26 -124
-16 -155 -20 -183 -26 -14 -3 -43 -8 -65 -10 -22 -3 -48 -7 -57 -10 -10 -3
-28 -7 -40 -9 -13 -3 -63 -13 -113 -24 -82 -18 -129 -30 -295 -75 -82 -23
-273 -92 -379 -137 -488 -209 -824 -500 -948 -824 -44 -113 -56 -188 -58 -364
-1 -147 -2 -155 -23 -170 -332 -238 -516 -496 -557 -781 -4 -25 -7 -272 -7
-550 0 -432 3 -516 17 -584 40 -193 128 -341 304 -517 111 -110 223 -196 369
-282 l102 -60 1 -341 c1 -445 1 -451 50 -586 165 -451 731 -830 1534 -1029
124 -31 349 -74 445 -86 30 -4 63 -9 72 -10 9 -2 48 -7 85 -10 37 -4 79 -8 92
-10 84 -14 259 -20 556 -20 346 0 473 6 651 30 32 5 66 9 74 10 34 3 121 18
210 36 52 11 106 22 120 24 46 9 65 13 130 30 36 9 73 19 83 21 72 14 390 121
537 181 450 184 802 482 924 783 50 122 63 203 66 393 4 377 2 854 -4 911 -16
136 -97 323 -198 453 -117 152 -367 352 -546 438 -48 23 -51 30 -19 46 12 7
24 15 27 18 3 3 34 28 70 56 222 169 385 396 442 615 21 82 22 102 22 605 1
286 -3 546 -7 577 -16 119 -79 266 -165 388 -53 75 -46 66 -137 160 -131 135
-321 269 -531 373 -95 47 -149 71 -299 132 -132 54 -440 140 -645 179 -200 38
-345 59 -495 71 -38 4 -81 9 -95 12 -26 5 -735 14 -741 9z m581 -440 c74 -4
151 -9 170 -11 19 -2 78 -9 130 -15 127 -14 170 -19 200 -25 14 -3 41 -7 60
-10 397 -63 836 -214 1100 -378 475 -297 564 -621 256 -931 -121 -123 -223
-194 -417 -291 -265 -134 -669 -256 -990 -299 -25 -4 -57 -9 -70 -11 -13 -2
-45 -6 -71 -9 -27 -3 -67 -8 -90 -11 -318 -41 -888 -36 -1205 10 -18 3 -50 7
-70 10 -113 17 -340 60 -423 82 -52 13 -99 25 -105 27 -101 25 -301 95 -425
150 -363 160 -614 373 -686 581 -24 70 -23 185 3 257 74 202 313 406 660 563
195 88 386 148 718 225 34 8 89 17 255 44 28 5 199 24 270 31 25 2 108 7 185
11 77 3 141 7 142 8 4 3 283 -3 403 -8z m-2493 -1912 c164 -109 403 -222 653
-309 164 -56 430 -125 589 -151 18 -3 41 -7 50 -9 9 -1 52 -8 96 -15 44 -6 91
-13 105 -16 14 -2 52 -6 85 -10 33 -3 71 -7 85 -10 24 -3 95 -9 270 -19 214
-14 633 -3 835 20 22 3 63 7 90 10 80 8 136 16 190 25 28 5 64 11 80 14 78 12
117 19 199 37 49 11 92 21 95 23 3 2 22 7 41 10 88 14 441 131 570 188 173 77
359 182 493 280 l68 49 -2 -71 c-10 -349 -472 -690 -1184 -875 -16 -5 -34 -9
-40 -11 -190 -51 -477 -97 -760 -121 -180 -15 -812 -7 -912 11 -10 2 -45 7
-78 10 -33 4 -87 11 -120 16 -33 5 -78 11 -100 15 -71 10 -109 17 -190 36 -45
10 -92 20 -105 23 -70 14 -324 88 -365 106 -11 5 -63 25 -115 45 -227 88 -458
229 -592 361 -128 127 -185 238 -195 378 l-6 80 38 -28 c20 -16 80 -57 132
-92z m-601 44 c0 -98 9 -152 51 -293 11 -38 85 -170 131 -235 90 -127 275
-292 452 -404 41 -26 137 -78 213 -117 75 -38 137 -72 137 -74 0 -3 -24 4 -52
14 -29 10 -84 28 -123 41 -519 171 -896 459 -951 725 -8 37 -5 150 4 180 21
67 113 225 131 225 4 0 7 -28 7 -62z m-107 -1087 c76 -60 241 -161 357 -220
67 -34 124 -61 127 -61 4 0 30 -11 59 -24 217 -100 660 -222 953 -262 22 -3
51 -7 65 -10 14 -2 68 -9 120 -15 52 -5 111 -12 130 -14 125 -14 287 -20 585
-20 301 0 418 4 545 20 19 2 58 7 85 10 72 9 100 14 190 30 44 8 96 17 115 20
19 3 107 24 194 47 279 71 581 181 819 299 115 57 357 152 366 144 3 -3 0 -31
-7 -63 -64 -306 -492 -605 -1112 -777 -69 -20 -135 -37 -145 -40 -87 -19 -330
-65 -370 -70 -27 -4 -57 -8 -65 -10 -8 -2 -49 -7 -90 -11 -41 -4 -88 -8 -105
-10 -248 -24 -824 -24 -965 1 -14 2 -54 6 -90 10 -36 3 -76 7 -90 10 -14 2
-45 7 -70 9 -25 3 -56 8 -70 11 -14 3 -54 10 -90 16 -36 5 -137 27 -225 49
-661 160 -1126 448 -1239 767 -14 39 -28 193 -18 193 2 0 21 -13 41 -29z
m5196 -365 c277 -208 369 -432 267 -653 -80 -173 -312 -369 -593 -500 -127
-60 -353 -144 -449 -169 -8 -2 -40 -11 -70 -19 -79 -23 -356 -82 -415 -90 -27
-3 -59 -8 -70 -10 -31 -7 -84 -13 -160 -20 -38 -4 -83 -9 -100 -11 -181 -24
-715 -24 -960 1 -102 10 -153 16 -171 19 -11 2 -44 7 -74 10 -74 9 -125 18
-285 52 -11 2 -29 6 -40 8 -228 45 -576 167 -775 273 -86 46 -190 111 -190
120 0 2 4 2 8 -1 25 -15 354 -78 480 -92 29 -3 63 -7 75 -10 20 -3 103 -12
187 -19 120 -11 319 -18 470 -18 168 -1 467 11 479 17 3 2 44 7 91 10 82 7
115 11 190 22 19 3 49 7 65 10 119 16 375 69 503 104 332 92 598 202 834 346
163 99 320 228 409 337 28 34 59 71 68 82 27 32 97 158 116 208 10 26 22 47
28 47 6 0 42 -24 82 -54z m309 -1331 c-7 -119 -21 -165 -79 -255 -126 -196
-385 -375 -725 -500 -63 -23 -131 -48 -150 -56 -116 -46 -542 -149 -700 -169
-25 -3 -56 -8 -70 -10 -212 -40 -828 -51 -1090 -21 -19 3 -67 7 -106 11 -39 3
-80 7 -90 9 -11 2 -48 7 -84 12 -36 4 -67 8 -70 9 -3 1 -25 5 -50 9 -25 5 -54
10 -65 12 -11 3 -36 7 -55 10 -47 7 -255 59 -344 85 -386 112 -694 275 -886
468 -134 135 -191 248 -192 384 0 59 6 66 35 40 12 -11 46 -37 75 -57 260
-180 626 -337 1017 -435 105 -26 147 -35 255 -56 59 -12 200 -34 255 -41 33
-5 62 -9 65 -9 3 -1 41 -5 85 -9 44 -4 94 -9 110 -11 186 -24 747 -24 980 0
148 16 316 37 360 45 50 10 74 14 150 26 22 3 43 8 46 10 3 2 21 6 40 9 106
19 462 117 524 145 11 5 74 30 140 56 66 26 172 74 235 107 109 56 307 180
359 226 13 12 25 21 26 21 2 0 1 -29 -1 -65z"/>
</g>
</svg>
